<?xml version="1.0" encoding="UTF-8"?>
<svg version="1.1" xmlns="http://www.w3.org/2000/svg" width="32" height="32">
<path d="M0 0 C10.56 0 21.12 0 32 0 C32 10.56 32 21.12 32 32 C21.44 32 10.88 32 0 32 C0 21.44 0 10.88 0 0 Z " fill="#6D231D" transform="translate(0,0)"/>
<path d="M0 0 C0.95003906 -0.03738281 1.90007813 -0.07476563 2.87890625 -0.11328125 C5.4375 0.3125 5.4375 0.3125 7.265625 2.09765625 C8.91206634 5.20943039 8.63705666 7.85351789 8.4375 11.3125 C7.1175 10.9825 5.7975 10.6525 4.4375 10.3125 C4.26734375 10.92738281 4.0971875 11.54226562 3.921875 12.17578125 C1.91777444 18.85966981 1.91777444 18.85966981 -0.75 21.375 C-1.6471875 21.8390625 -1.6471875 21.8390625 -2.5625 22.3125 C-1.5725 22.9725 -0.5825 23.6325 0.4375 24.3125 C-0.5625 25.3125 -0.5625 25.3125 -3.72265625 25.41015625 C-5.01042969 25.39855469 -6.29820313 25.38695313 -7.625 25.375 C-8.91535156 25.36597656 -10.20570312 25.35695313 -11.53515625 25.34765625 C-12.53417969 25.33605469 -13.53320312 25.32445313 -14.5625 25.3125 C-14.8925 23.9925 -15.2225 22.6725 -15.5625 21.3125 C-14.2425 21.3125 -12.9225 21.3125 -11.5625 21.3125 C-11.8925 20.6525 -12.2225 19.9925 -12.5625 19.3125 C-13.5525 18.9825 -14.5425 18.6525 -15.5625 18.3125 C-15.5625 17.6525 -15.5625 16.9925 -15.5625 16.3125 C-16.2225 16.3125 -16.8825 16.3125 -17.5625 16.3125 C-17.2325 13.3425 -16.9025 10.3725 -16.5625 7.3125 C-15.2425 7.3125 -13.9225 7.3125 -12.5625 7.3125 C-12.376875 6.384375 -12.376875 6.384375 -12.1875 5.4375 C-11.5625 3.3125 -11.5625 3.3125 -9.5625 1.3125 C-6.40952054 0.2384081 -3.31493932 0.08569231 0 0 Z " fill="#BE6E63" transform="translate(19.5625,6.6875)"/>
<path d="M0 0 C11.25 0 11.25 0 15 2 C14.01 3.485 14.01 3.485 13 5 C17.455 5.99 17.455 5.99 22 7 C19.24798518 7.91733827 17.34993875 8.11700286 14.5 8.25 C12.11877712 8.41639375 12.11877712 8.41639375 10 9 C8.15565651 11.46115547 8.15565651 11.46115547 7 14 C5.68 14 4.36 14 3 14 C2.67 16.97 2.34 19.94 2 23 C2.66 23 3.32 23 4 23 C4 23.66 4 24.32 4 25 C5.32 25.33 6.64 25.66 8 26 C8 26.66 8 27.32 8 28 C6.68 28 5.36 28 4 28 C4.33 29.32 4.66 30.64 5 32 C3.35 32 1.7 32 0 32 C0 21.44 0 10.88 0 0 Z " fill="#766B4C" transform="translate(0,0)"/>
<path d="M0 0 C7.26 0 14.52 0 22 0 C22 5.28 22 10.56 22 16 C21.01 16 20.02 16 19 16 C19 14.02 19 12.04 19 10 C18.01 10 17.02 10 16 10 C15.67 9.34 15.34 8.68 15 8 C11.9600352 7.30662208 11.9600352 7.30662208 8.4375 6.875 C6.64119141 6.62363281 6.64119141 6.62363281 4.80859375 6.3671875 C3.88175781 6.24601563 2.95492188 6.12484375 2 6 C2.66 4.68 3.32 3.36 4 2 C2.68 1.34 1.36 0.68 0 0 Z " fill="#1E241C" transform="translate(10,0)"/>
<path d="M0 0 C3 1 3 1 4.1875 3.0625 C4.455625 3.701875 4.72375 4.34125 5 5 C5.33 4.34 5.66 3.68 6 3 C6.66 3 7.32 3 8 3 C8.33 2.34 8.66 1.68 9 1 C9 3.31 9 5.62 9 8 C7.68 7.67 6.36 7.34 5 7 C4.82984375 7.61488281 4.6596875 8.22976562 4.484375 8.86328125 C2.48027444 15.54716981 2.48027444 15.54716981 -0.1875 18.0625 C-1.0846875 18.5265625 -1.0846875 18.5265625 -2 19 C-1.67 19.66 -1.34 20.32 -1 21 C-2.98 21 -4.96 21 -7 21 C-7 20.34 -7 19.68 -7 19 C-7.99 18.67 -8.98 18.34 -10 18 C-10 17.67 -10 17.34 -10 17 C-8.02 17 -6.04 17 -4 17 C-4 16.34 -4 15.68 -4 15 C-3.01 14.67 -2.02 14.34 -1 14 C-0.67 13.34 -0.34 12.68 0 12 C-0.66 11.67 -1.32 11.34 -2 11 C-1.34 9.35 -0.68 7.7 0 6 C-2.64 6.33 -5.28 6.66 -8 7 C-7.01 5.02 -6.02 3.04 -5 1 C-3.35 1 -1.7 1 0 1 C0 0.67 0 0.34 0 0 Z " fill="#A83935" transform="translate(19,10)"/>
<path d="M0 0 C10.55808656 -0.3690205 10.55808656 -0.3690205 15 2 C14.01 3.485 14.01 3.485 13 5 C17.455 5.99 17.455 5.99 22 7 C19.36375451 7.8787485 17.29795995 8.24167663 14.5625 8.5 C11.61338978 8.77944192 8.85929203 9.21841676 6 10 C6 9.01 6 8.02 6 7 C3.03 6.505 3.03 6.505 0 6 C0 4.02 0 2.04 0 0 Z " fill="#4B4833" transform="translate(0,0)"/>
<path d="M0 0 C0.66 0.66 1.32 1.32 2 2 C1.67 2.5775 1.34 3.155 1 3.75 C-0.27075898 6.19883862 -0.27075898 6.19883862 0 10 C-0.99 10 -1.98 10 -3 10 C-3 10.66 -3 11.32 -3 12 C-4.65 12.33 -6.3 12.66 -8 13 C-7.34 13.33 -6.68 13.66 -6 14 C-6 14.66 -6 15.32 -6 16 C-3.36 15.67 -0.72 15.34 2 15 C1.67 15.66 1.34 16.32 1 17 C-3.62 17 -8.24 17 -13 17 C-13.33 15.68 -13.66 14.36 -14 13 C-12.68 13 -11.36 13 -10 13 C-9.67 10.69 -9.34 8.38 -9 6 C-7.35 6.99 -5.7 7.98 -4 9 C-4.66 7.68 -5.32 6.36 -6 5 C-4.02 3.35 -2.04 1.7 0 0 Z " fill="#C8564F" transform="translate(18,15)"/>
<path d="M0 0 C0.33 0.99 0.66 1.98 1 3 C0.34 3.66 -0.32 4.32 -1 5 C0.32 5.66 1.64 6.32 3 7 C2.01 7.99 1.02 8.98 0 10 C0.33 10.99 0.66 11.98 1 13 C-0.32 12.67 -1.64 12.34 -3 12 C-3 12.99 -3 13.98 -3 15 C-5.97 14.505 -5.97 14.505 -9 14 C-9.33 12.02 -9.66 10.04 -10 8 C-9.34 8 -8.68 8 -8 8 C-7.67 8.66 -7.34 9.32 -7 10 C-4.86710308 8.23690321 -4.86710308 8.23690321 -4.625 6.125 C-3.78947774 3.2842243 -2.16437869 1.95492269 0 0 Z " fill="#D57367" transform="translate(13,11)"/>
<path d="M0 0 C0.66 0 1.32 0 2 0 C2 1.65 2 3.3 2 5 C2.66 5 3.32 5 4 5 C4 5.66 4 6.32 4 7 C5.32 7.33 6.64 7.66 8 8 C8 8.66 8 9.32 8 10 C6.68 10 5.36 10 4 10 C4.33 11.32 4.66 12.64 5 14 C3.35 14 1.7 14 0 14 C0 9.38 0 4.76 0 0 Z " fill="#514737" transform="translate(0,18)"/>
<path d="M0 0 C0.33 0 0.66 0 1 0 C1.0805819 3.54560339 0.98827685 6.59593529 0 10 C-0.34060811 11.66519519 -0.67558396 13.33157466 -1 15 C-1.556875 14.855625 -2.11375 14.71125 -2.6875 14.5625 C-5.11384195 13.97230872 -7.54906345 13.476571 -10 13 C-8.03617993 11.49440461 -6.21736634 10.10868317 -4 9 C-2.94952356 6.68895182 -1.94992562 4.35416349 -1 2 C-0.67 1.34 -0.34 0.68 0 0 Z " fill="#912722" transform="translate(24,17)"/>
<path d="M0 0 C0.66 0 1.32 0 2 0 C2 1.98 2 3.96 2 6 C2.99 6 3.98 6 5 6 C5 8.31 5 10.62 5 13 C4.01 13 3.02 13 2 13 C2 14.32 2 15.64 2 17 C0.68 17 -0.64 17 -2 17 C-1.67 15.68 -1.34 14.36 -1 13 C-0.34 13 0.32 13 1 13 C0.67 8.71 0.34 4.42 0 0 Z " fill="#702D26" transform="translate(27,10)"/>
<path d="M0 0 C0 3.63 0 7.26 0 11 C-0.99 11 -1.98 11 -3 11 C-3 9.02 -3 7.04 -3 5 C-3.99 5 -4.98 5 -6 5 C-6.33 4.01 -6.66 3.02 -7 2 C-4.35261084 0.5393715 -3.10551666 0 0 0 Z " fill="#453219" transform="translate(32,5)"/>
<path d="M0 0 C1.32 0.33 2.64 0.66 4 1 C3.01 1.495 3.01 1.495 2 2 C2.66 2.33 3.32 2.66 4 3 C4 3.66 4 4.32 4 5 C6.64 4.67 9.28 4.34 12 4 C11.67 4.66 11.34 5.32 11 6 C6.38 6 1.76 6 -3 6 C-3.33 4.68 -3.66 3.36 -4 2 C-2.68 2 -1.36 2 0 2 C0 1.34 0 0.68 0 0 Z " fill="#BB5A51" transform="translate(8,26)"/>
<path d="M0 0 C0.33 1.32 0.66 2.64 1 4 C-0.32 4.99 -1.64 5.98 -3 7 C-2.67 7.66 -2.34 8.32 -2 9 C-3.98 9 -5.96 9 -8 9 C-8 8.34 -8 7.68 -8 7 C-8.99 6.67 -9.98 6.34 -11 6 C-11 5.67 -11 5.34 -11 5 C-9.02 5 -7.04 5 -5 5 C-5 4.34 -5 3.68 -5 3 C-2.5 1.375 -2.5 1.375 0 0 Z " fill="#A7322D" transform="translate(20,22)"/>
<path d="M0 0 C0.99 0.33 1.98 0.66 3 1 C3.33 1.99 3.66 2.98 4 4 C3.01 4 2.02 4 1 4 C0.67 4.66 0.34 5.32 0 6 C-2.64860427 6.59355614 -5.29197322 6.74209269 -8 7 C-7.01 5.02 -6.02 3.04 -5 1 C-3.35 1 -1.7 1 0 1 C0 0.67 0 0.34 0 0 Z " fill="#C63D3B" transform="translate(19,10)"/>
<path d="M0 0 C0.33 0 0.66 0 1 0 C1 2.31 1 4.62 1 7 C-1.97 7 -4.94 7 -8 7 C-6 4 -6 4 -3.375 3.3125 C-2.59125 3.209375 -1.8075 3.10625 -1 3 C-0.67 2.01 -0.34 1.02 0 0 Z " fill="#2A2012" transform="translate(31,25)"/>
<path d="M0 0 C1.98 0 3.96 0 6 0 C6 0.99 6 1.98 6 3 C6.66 3.33 7.32 3.66 8 4 C6.6875 5.5 6.6875 5.5 5 7 C4.01 7 3.02 7 2 7 C1.34 4.69 0.68 2.38 0 0 Z " fill="#615F44" transform="translate(1,6)"/>
<path d="M0 0 C1.45742463 -0.08096803 2.91612807 -0.13917774 4.375 -0.1875 C5.18710937 -0.22230469 5.99921875 -0.25710937 6.8359375 -0.29296875 C7.55007812 -0.19628906 8.26421875 -0.09960938 9 0 C11 3 11 3 11 6 C10.34 6 9.68 6 9 6 C8.67 6.99 8.34 7.98 8 9 C7.67 8.34 7.34 7.68 7 7 C7.9375 4.375 7.9375 4.375 9 2 C6.03 2 3.06 2 0 2 C0 1.34 0 0.68 0 0 Z " fill="#B05F53" transform="translate(16,7)"/>
<path d="M0 0 C2.64 0 5.28 0 8 0 C8.042721 1.66611905 8.04063832 3.33382885 8 5 C7 6 7 6 4.4375 6.0625 C3.2309375 6.0315625 3.2309375 6.0315625 2 6 C2.66 4.68 3.32 3.36 4 2 C2.68 1.34 1.36 0.68 0 0 Z " fill="#2E3428" transform="translate(10,0)"/>
<path d="M0 0 C1.8871875 0.0309375 1.8871875 0.0309375 3.8125 0.0625 C3.4825 1.7125 3.1525 3.3625 2.8125 5.0625 C1.4925 4.0725 0.1725 3.0825 -1.1875 2.0625 C-1.1875 2.3925 -1.1875 2.7225 -1.1875 3.0625 C-2.8375 3.0625 -4.4875 3.0625 -6.1875 3.0625 C-6.5175 2.4025 -6.8475 1.7425 -7.1875 1.0625 C-4.43671116 0.14557039 -2.82801087 -0.04636083 0 0 Z " fill="#D36F62" transform="translate(21.1875,8.9375)"/>
<path d="M0 0 C1.32 0 2.64 0 4 0 C3.67 1.65 3.34 3.3 3 5 C2.01 5 1.02 5 0 5 C-0.33 6.32 -0.66 7.64 -1 9 C-0.67 6.03 -0.34 3.06 0 0 Z " fill="#AB6D5F" transform="translate(3,14)"/>
<path d="M0 0 C0.99 0.33 1.98 0.66 3 1 C3 2.65 3 4.3 3 6 C2.34 6 1.68 6 1 6 C1 6.66 1 7.32 1 8 C0.01 8.33 -0.98 8.66 -2 9 C-1.34 6.03 -0.68 3.06 0 0 Z " fill="#6A1914" transform="translate(25,17)"/>
<path d="M0 0 C0 0.66 0 1.32 0 2 C-0.99 2 -1.98 2 -3 2 C-3 3.32 -3 4.64 -3 6 C-4.32 6 -5.64 6 -7 6 C-6.6875 4.125 -6.6875 4.125 -6 2 C-3 0 -3 0 0 0 Z " fill="#7E332D" transform="translate(32,21)"/>
<path d="M0 0 C0 2.64 0 5.28 0 8 C-0.33 7.01 -0.66 6.02 -1 5 C-1.99 5 -2.98 5 -4 5 C-4.33 4.01 -4.66 3.02 -5 2 C-1.125 0 -1.125 0 0 0 Z " fill="#353126" transform="translate(30,5)"/>
<path d="M0 0 C0.33 0.99 0.66 1.98 1 3 C-0.9375 5.6875 -0.9375 5.6875 -3 8 C-3.75 6.25 -3.75 6.25 -4 4 C-2.0625 1.75 -2.0625 1.75 0 0 Z " fill="#D45651" transform="translate(13,11)"/>
<path d="M0 0 C2.475 0.99 2.475 0.99 5 2 C4.01 3.485 4.01 3.485 3 5 C2.01 5 1.02 5 0 5 C0 3.35 0 1.7 0 0 Z " fill="#575439" transform="translate(0,1)"/>
</svg>
